<?xml version="1.0" standalone="no"?>
<!DOCTYPE svg PUBLIC "-//W3C//DTD SVG 20010904//EN"
 "http://www.w3.org/TR/2001/REC-SVG-20010904/DTD/svg10.dtd">
<svg version="1.0" xmlns="http://www.w3.org/2000/svg"
 width="500.000000pt" height="500.000000pt" viewBox="0 0 500.000000 500.000000"
 preserveAspectRatio="xMidYMid meet">

<g transform="translate(0.000000,500.000000) scale(0.100000,-0.100000)"
fill="#000000" stroke="none">
<path d="M0 2500 l0 -2500 2500 0 2500 0 0 2500 0 2500 -2500 0 -2500 0 0
-2500z m2968 303 l3 -132 32 19 c18 11 48 20 67 20 47 0 122 -38 137 -70 8
-16 13 -73 13 -157 l0 -133 -60 0 -60 0 0 114 c0 112 -1 115 -27 135 -28 23
-54 21 -85 -7 -15 -13 -18 -33 -18 -129 l0 -113 -60 0 -60 0 0 295 0 296 58
-3 57 -3 3 -132z m-954 96 c57 -45 8 -144 -60 -122 -62 20 -70 102 -14 130 34
17 43 16 74 -8z m286 -134 l0 -65 35 0 c35 0 35 0 35 -45 0 -45 0 -45 -35 -45
l-36 0 3 -77 c3 -77 3 -78 29 -78 23 1 29 -6 42 -47 l15 -47 -31 -10 c-67 -24
-127 -8 -157 41 -16 27 -20 51 -20 126 0 91 0 92 -25 92 -23 0 -25 4 -25 45 0
41 2 45 25 45 24 0 25 2 25 65 l0 65 60 0 60 0 0 -65z m-580 -78 c63 -33 93
-92 88 -173 -5 -75 -35 -126 -94 -154 -52 -25 -104 -25 -154 0 l-40 20 0 -105
0 -106 -57 3 -58 3 -3 263 -2 262 60 0 c47 0 60 -3 60 -15 0 -19 -2 -19 45 5
52 26 102 25 155 -3z m995 9 c19 -8 35 -17 35 -20 0 -3 -7 -21 -17 -40 -16
-34 -17 -35 -63 -29 -43 5 -48 3 -73 -27 -34 -40 -34 -70 0 -110 25 -30 30
-32 73 -27 46 6 47 5 64 -31 17 -34 17 -37 0 -49 -48 -35 -148 -28 -208 14
-56 39 -80 85 -80 150 0 128 147 220 269 169z m909 1 c17 -12 17 -15 -5 -60
-19 -39 -27 -46 -43 -41 -39 13 -80 6 -98 -17 -15 -17 -18 -41 -18 -125 l0
-104 -60 0 -60 0 0 175 0 175 60 0 c54 0 60 -2 60 -20 0 -20 1 -20 37 5 41 28
98 33 127 12z m-1594 -172 l0 -175 -60 0 -60 0 0 175 0 175 60 0 60 0 0 -175z"/>
<path d="M1550 2582 c-18 -19 -30 -41 -30 -57 0 -16 12 -38 30 -57 26 -25 36
-29 63 -24 42 8 67 40 67 86 0 43 -21 67 -68 76 -26 5 -36 1 -62 -24z"/>
</g>
</svg>
